<?xml version="1.0" encoding="utf-8"?><!-- Uploaded to: SVG Repo, www.svgrepo.com, Generator: SVG Repo Mixer Tools -->
<svg width="800px" height="800px" viewBox="0 0 24 24" fill="none" xmlns="http://www.w3.org/2000/svg">
<path fill-rule="evenodd" clip-rule="evenodd" d="M14.8295 4.03297L4.16794 6.74067C3.09736 7.01257 2.44989 8.10086 2.72179 9.17144L1.75256 9.41773C1.21727 9.55368 0.893535 10.0978 1.02948 10.6331C1.16543 11.1684 1.70958 11.4921 2.24487 11.3562L3.21413 11.11C3.48608 12.1805 4.57433 12.8279 5.64487 12.5561L8.99999 11.704L8.99999 13.0014C9.00035 13.1749 9.02825 13.3476 9.07021 13.5156L3.29288 19.293C2.90236 19.6835 2.90236 20.3167 3.29288 20.7072C3.68341 21.0977 4.31657 21.0977 4.70709 20.7072L10.303 15.1112C10.509 15.2241 10.7409 15.3162 11 15.3824V22.0001C11 22.5524 11.4477 23.0001 12 23.0001C12.5523 23.0001 13 22.5524 13 22.0001V15.3824C13.2591 15.3162 13.491 15.2241 13.6969 15.1112L19.2929 20.7072C19.6834 21.0977 20.3166 21.0977 20.7071 20.7072C21.0976 20.3167 21.0976 19.6835 20.7071 19.293L14.9298 13.5156C14.9718 13.3471 14.9999 13.1741 15 13.0001V10.1801L16.3064 9.84834C16.5783 10.9189 17.6666 11.5664 18.7372 11.2945L20.6756 10.8022C22.2815 10.3943 23.2527 8.7619 22.8449 7.15602L21.8602 3.2791C21.4524 1.67323 19.82 0.70203 18.2141 1.10987L16.2756 1.60218C15.205 1.87408 14.5576 2.96239 14.8295 4.03297ZM18.7064 3.04833L16.7679 3.54064L18.2449 9.35603L20.1833 8.86372C20.7186 8.72777 21.0424 8.18362 20.9064 7.64833L19.9218 3.77141C19.7858 3.23612 19.2417 2.91239 18.7064 3.04833ZM15.8141 7.90989L15.3218 5.97143L4.66025 8.67913L5.15256 10.6176L15.8141 7.90989ZM11 11.196V12.9752C11.0557 13.4367 11.6342 13.5001 12 13.5001C12.3655 13.5001 12.9446 13.4338 13 12.9752V10.6881L11 11.196Z" fill="#0F0F0F"/>
</svg>