<?xml version="1.0" encoding="UTF-8"?>
<svg version="1.1" xmlns="http://www.w3.org/2000/svg" width="880" height="532">
<path d="M0 0 C5.56555758 4.47987386 8.67537805 10.8503529 10.90234375 17.53125 C11.48621996 25.51408211 11.83481036 32.65294747 7.58203125 39.69921875 C6.68540371 41.54889423 6.68540371 41.54889423 7.515625 43.546875 C9.16742638 45.91057951 10.9149136 47.3509224 13.21484375 49.09375 C17.41643787 52.3467932 21.49400739 55.69977454 25.52734375 59.15625 C29.75466003 62.77471393 34.03726128 66.23324424 38.609375 69.41015625 C39.03605469 69.78011719 39.46273438 70.15007812 39.90234375 70.53125 C39.90234375 71.19125 39.90234375 71.85125 39.90234375 72.53125 C40.46050781 72.78003906 41.01867187 73.02882813 41.59375 73.28515625 C44.30278605 74.74739398 46.47198695 76.49969013 48.83984375 78.46875 C49.80019531 79.26152344 50.76054687 80.05429688 51.75 80.87109375 C53.97092183 82.73087866 56.15899705 84.62412972 58.3359375 86.53515625 C58.90900635 87.03345947 59.4820752 87.5317627 60.07250977 88.04516602 C61.18835205 89.01783277 62.29725336 89.99853433 63.39819336 90.98803711 C66.45344041 93.64516896 68.77935939 95.38883258 72.90234375 95.53125 C74.6043078 94.2432772 76.26579554 92.90138339 77.90234375 91.53125 C85.89290416 87.38799645 95.04635225 87.26616488 103.77734375 89.15234375 C112.21580286 92.11898953 118.78371484 97.80012536 122.90234375 105.71875 C125.16269015 110.57692508 126.04442172 115.06084575 126.02734375 120.40625 C126.02992188 121.20804688 126.0325 122.00984375 126.03515625 122.8359375 C125.87392031 126.10807866 125.40322195 129.29541784 124.90234375 132.53125 C138.25666002 139.9902741 151.78084153 147.07670086 165.40234375 154.03125 C176.32045815 159.60619962 187.18702427 165.23660518 197.9152832 171.17138672 C205.40505099 175.29994558 212.98778201 179.23999957 220.58984375 183.15625 C221.21887604 183.48035858 221.84790833 183.80446716 222.4960022 184.13839722 C224.96507884 185.41035303 227.43428377 186.68205918 229.9037323 187.95329285 C239.83976145 193.07068148 249.71231728 198.30813791 259.5854187 203.545578 C263.19075812 205.45803894 266.79645357 207.36982773 270.40234375 209.28125 C271.13602173 209.6701944 271.86969971 210.05913879 272.62561035 210.45986938 C284.69362226 216.8552 296.80198611 223.16750918 308.93359375 229.44140625 C319.57611547 234.94598488 330.17827376 240.52332148 340.73046875 246.19921875 C343.18351348 247.51837851 345.63662296 248.83741767 348.08984375 250.15625 C348.69323578 250.48069092 349.29662781 250.80513184 349.91830444 251.1394043 C359.16422808 256.10700009 368.46203048 260.94302321 377.90234375 265.53125 C378.34964844 265.00015625 378.79695312 264.4690625 379.2578125 263.921875 C386.54848985 255.40313046 394.5295612 249.14727594 405.90234375 247.53125 C417.63965328 246.7063732 427.93419275 249.05547272 437.328125 256.4375 C444.78824468 263.35848498 450.47405427 272.53036426 451.10546875 282.8515625 C451.27951424 296.97825493 448.31520701 306.72958563 438.65234375 317.28125 C431.24742299 324.31103161 421.57579462 327.41539685 411.52734375 327.84375 C401.46993725 327.56340417 391.06021598 323.85822171 383.83984375 316.71875 C382.88078125 315.6359375 382.88078125 315.6359375 381.90234375 314.53125 C378.53299091 315.7548876 375.97060212 317.06172787 373.21484375 319.34375 C368.75451756 322.91201095 364.16681536 326.26486078 359.52734375 329.59375 C353.03576043 334.2580276 346.57925001 338.96574712 340.15234375 343.71875 C333.48270699 348.64821666 326.77173913 353.51187828 320.01171875 358.31640625 C317.21329934 360.30975274 314.42895492 362.32018944 311.65234375 364.34375 C306.69775464 367.95310201 301.7406138 371.55884502 296.77734375 375.15625 C296.03709961 375.69483643 295.29685547 376.23342285 294.53417969 376.78833008 C289.98988881 380.07865865 285.38206618 383.22191527 280.65673828 386.24755859 C278.76361194 387.42725553 278.76361194 387.42725553 277.90234375 389.53125 C276.24550237 390.54744605 274.57581651 391.54268199 272.90234375 392.53125 C270.13895615 394.44223824 267.42957195 396.42694984 264.71484375 398.40625 C263.10031489 399.57820004 261.48572996 400.75007286 259.87109375 401.921875 C259.04738281 402.52064453 258.22367188 403.11941406 257.375 403.73632812 C254.24538238 406.00814376 251.10821499 408.26937969 247.97070312 410.53027344 C241.09406144 415.48681388 234.22696848 420.45605095 227.40722656 425.49072266 C224.17237634 427.87784926 220.919697 430.23406376 217.63671875 432.5546875 C216.93893311 433.05274902 216.24114746 433.55081055 215.5222168 434.06396484 C214.17777849 435.02279648 212.82786345 435.9740071 211.47192383 436.91650391 C209.89372971 438.04842369 208.38966374 439.28232314 206.90234375 440.53125 C206.90234375 443.79192427 207.60163694 445.26957795 208.90234375 448.21875 C212.3836125 457.559948 212.31918362 468.88960719 208.94140625 478.296875 C203.36406353 490.29025859 195.05374414 497.56599109 182.90234375 502.53125 C172.21212537 506.03321809 161.64575513 504.91150079 151.37890625 500.4296875 C149.12544637 499.23758415 147.01668746 497.9544446 144.90234375 496.53125 C144.28746094 496.12390625 143.67257812 495.7165625 143.0390625 495.296875 C135.76453191 489.81274995 130.47888917 480.46500736 128.90234375 471.53125 C128.90234375 469.22125 128.90234375 466.91125 128.90234375 464.53125 C97.88234375 463.21125 66.86234375 461.89125 34.90234375 460.53125 C34.57234375 462.84125 34.24234375 465.15125 33.90234375 467.53125 C31.49117424 475.43931189 25.51416993 480.7199313 18.62109375 484.921875 C10.79713116 488.62521729 1.57530404 488.92881602 -6.77734375 486.87109375 C-14.93515217 483.61079315 -21.76172174 477.11474679 -26.09765625 469.53125 C-27.89751725 465.33157434 -28.16673201 462.05885212 -28.09765625 457.53125 C-29.20206055 457.54285156 -30.30646484 457.55445313 -31.44433594 457.56640625 C-46.76227837 457.67322307 -62.04291215 457.11492209 -77.34765625 456.53125 C-79.95441462 456.43455919 -82.56118541 456.33820282 -85.16796875 456.2421875 C-91.47801273 456.00905502 -97.78789199 455.77182826 -104.09765625 455.53125 C-104.22780121 456.15034744 -104.35794617 456.76944489 -104.49203491 457.40730286 C-104.6665921 458.21882309 -104.84114929 459.03034332 -105.02099609 459.86645508 C-105.19239105 460.67117752 -105.36378601 461.47589996 -105.54037476 462.30500793 C-107.47563678 470.03604113 -113.48937119 475.54834951 -120.09765625 479.53125 C-128.57592925 483.99810871 -136.81743595 484.67930644 -145.97265625 482.09375 C-154.6119811 478.98097177 -160.90880061 473.41955937 -165.16015625 465.28125 C-167.31094483 460.59697025 -168.24078201 456.1789645 -168.22265625 451.03125 C-168.22523438 450.2990625 -168.2278125 449.566875 -168.23046875 448.8125 C-168.08495969 446.31316792 -167.63927684 443.97284122 -167.09765625 441.53125 C-179.89243695 434.86184463 -193.04164509 429.01034657 -206.22134399 423.15194702 C-210.73508664 421.14372329 -215.23946416 419.11564397 -219.73828125 417.07421875 C-220.36955429 416.78783035 -221.00082733 416.50144196 -221.65122986 416.20637512 C-222.93007957 415.62615147 -224.20892376 415.04591565 -225.48776245 414.46566772 C-238.26924271 408.66852086 -251.09947488 402.9911942 -263.9777832 397.41235352 C-271.4799616 394.15629907 -278.91343512 390.77902325 -286.31542969 387.30151367 C-292.75761228 384.27795293 -299.24258394 381.34745092 -305.72265625 378.40625 C-306.42045197 378.08920105 -307.11824768 377.7721521 -307.83718872 377.44549561 C-319.63602653 372.08495428 -331.45378165 366.76720617 -343.28564453 361.47998047 C-344.41856934 360.97354004 -345.55149414 360.46709961 -346.71875 359.9453125 C-348.21039673 359.27943115 -348.21039673 359.27943115 -349.73217773 358.60009766 C-351.1996239 357.93702827 -352.65736204 357.2513971 -354.09765625 356.53125 C-354.34 357.28019531 -354.58234375 358.02914063 -354.83203125 358.80078125 C-356.26875101 361.9003711 -357.64269831 363.17163047 -360.34765625 365.21875 C-361.0953125 365.80011719 -361.84296875 366.38148438 -362.61328125 366.98046875 C-369.87440615 371.51296338 -377.80231615 371.34097167 -386.09765625 370.53125 C-394.70614494 368.15728926 -400.63222028 362.10861833 -405.2578125 354.6640625 C-408.43707334 347.77319947 -408.48217385 338.67930869 -406.11328125 331.58203125 C-404.9135474 329.10480302 -403.61028141 326.82868647 -402.09765625 324.53125 C-401.49953125 323.603125 -400.90140625 322.675 -400.28515625 321.71875 C-394.07166648 315.50526023 -387.24581759 312.89252448 -378.53515625 312.28125 C-374.74484112 312.55690928 -371.6992149 313.35523085 -368.09765625 314.53125 C-367.86304688 313.74492187 -367.6284375 312.95859375 -367.38671875 312.1484375 C-365.72588472 307.48803657 -363.62142358 303.10862172 -361.47265625 298.65625 C-361.02462646 297.72151855 -360.57659668 296.78678711 -360.11499023 295.82373047 C-357.22470828 289.81288979 -354.27225146 283.83618735 -351.26438904 277.88348389 C-348.44874852 272.28818636 -345.74899785 266.64072679 -343.05859375 260.984375 C-337.8192232 250.00014412 -332.48751891 239.06300908 -327.12423706 228.13885498 C-319.17977219 211.9545021 -311.28002097 195.75166842 -303.51074219 179.48242188 C-301.03833071 174.31889218 -298.54650001 169.16472811 -296.05578613 164.01000977 C-295.17195034 162.1806612 -294.2885365 160.35110953 -293.40527344 158.52148438 C-290.70175652 152.92155747 -287.99692291 147.32227664 -285.28816223 141.72488403 C-284.07569467 139.21854249 -282.86469895 136.71149167 -281.65402222 134.20428467 C-280.80261214 132.44237329 -279.94929944 130.68138173 -279.09594727 128.92041016 C-278.58475342 127.86128418 -278.07355957 126.8021582 -277.546875 125.7109375 C-277.09658936 124.78007324 -276.64630371 123.84920898 -276.18237305 122.89013672 C-275.01430172 120.46292155 -275.01430172 120.46292155 -274.09765625 117.53125 C-274.65453125 117.345625 -275.21140625 117.16 -275.78515625 116.96875 C-280.02615271 114.3324549 -282.33229712 110.17130528 -284.41015625 105.71875 C-286.19348587 97.45058541 -285.578065 89.84766216 -281.09765625 82.53125 C-276.17351393 77.03752406 -271.33517176 72.96664586 -263.828125 72.1953125 C-254.66980002 72.09433869 -249.14762833 72.93127482 -242.28515625 79.03125 C-240.44140851 81.13839028 -238.70833442 83.24239155 -237.09765625 85.53125 C-230.35345629 84.85979409 -224.10789157 82.8571833 -217.6484375 80.8671875 C-215.72984392 80.28323071 -213.81125017 79.69927447 -211.8926506 79.11533737 C-209.82918779 78.48621408 -207.76652167 77.85454012 -205.70407104 77.22210693 C-201.34861965 75.88661242 -196.99103752 74.55817055 -192.63305664 73.23095703 C-187.99891966 71.81932277 -183.364915 70.40726274 -178.73161316 68.9928894 C-167.152676 65.45858692 -155.56829979 61.94252751 -143.98046875 58.4375 C-143.14603682 58.18510181 -142.31160488 57.93270363 -141.45188713 57.67265701 C-137.27565204 56.40953949 -133.09932536 55.14672513 -128.92294312 53.88409424 C-124.17476531 52.44855803 -119.42681375 51.01227492 -114.67895508 49.57568359 C-113.92290639 49.34692976 -113.1668577 49.11817593 -112.38789845 48.88249016 C-108.66930862 47.75731615 -104.95080244 46.6318667 -101.23243713 45.50595093 C-99.77979909 45.06612933 -98.3271573 44.62632013 -96.87451172 44.18652344 C-96.15983073 43.97014788 -95.44514975 43.75377232 -94.70881176 43.53083992 C-90.1306607 42.14523965 -85.5514958 40.76303589 -80.97170544 39.382864 C-77.87882517 38.45056729 -74.78635551 37.51691335 -71.69394112 36.58307266 C-70.22704014 36.14049075 -68.75994468 35.69855287 -67.29264641 35.25728989 C-65.27736662 34.6511798 -63.26275952 34.04288212 -61.24829102 33.43408203 C-60.10497818 33.08959015 -58.96166534 32.74509827 -57.78370667 32.39016724 C-55.16307121 31.62793409 -55.16307121 31.62793409 -53.09765625 30.53125 C-53.1440625 29.86480469 -53.19046875 29.19835938 -53.23828125 28.51171875 C-53.63111732 18.48036904 -51.47061347 10.91929624 -44.97265625 3.15625 C-32.17876415 -10.12321887 -14.62907894 -10.48974378 0 0 Z M-59.11230469 38.95825195 C-60.11569885 39.27158981 -61.11909302 39.58492767 -62.15289307 39.90776062 C-63.24325867 40.25401993 -64.33362427 40.60027924 -65.45703125 40.95703125 C-67.83118601 41.69935186 -70.20554292 42.44102616 -72.58007812 43.18212891 C-73.81910889 43.57031799 -75.05813965 43.95850708 -76.3347168 44.35845947 C-82.41777495 46.25435843 -88.51527943 48.1020584 -94.61328125 49.94921875 C-95.86680893 50.3294519 -97.12033661 50.70968506 -98.41184998 51.10144043 C-101.70572832 52.1005181 -104.99987508 53.0987076 -108.29410934 54.09661102 C-110.38397029 54.72975164 -112.47374655 55.36317111 -114.56350708 55.99664307 C-131.46723129 61.12013342 -148.37728465 66.22210906 -165.296875 71.29296875 C-166.08568935 71.52941038 -166.87450371 71.76585201 -167.68722153 72.00945854 C-175.36238288 74.3098737 -183.0380341 76.60863579 -190.71508217 78.90274715 C-205.54469083 83.33501821 -220.36239121 87.79249708 -235.09765625 92.53125 C-235.13294434 93.28325684 -235.16823242 94.03526367 -235.20458984 94.81005859 C-235.64688748 103.02954886 -237.12055001 110.0849165 -243.28515625 115.90625 C-251.20925035 121.937273 -259.44757361 121.93395824 -269.09765625 121.53125 C-269.32839844 122.05332031 -269.55914062 122.57539063 -269.796875 123.11328125 C-274.01451359 132.63214146 -278.28859043 142.09623216 -283.00585938 151.37890625 C-285.79771931 156.88583626 -288.45762908 162.45012234 -291.09765625 168.03125 C-294.35972858 174.92245518 -297.69161498 181.76893644 -301.12890625 188.57421875 C-304.05716722 194.39546043 -306.84738474 200.27878363 -309.60180664 206.18408203 C-311.95457348 211.20279598 -314.40439681 216.16760319 -316.890625 221.12109375 C-320.96794633 229.24481466 -324.94982329 237.41249409 -328.91015625 245.59375 C-330.39137019 248.65131177 -331.87323552 251.70855724 -333.35546875 254.765625 C-333.7368248 255.55230057 -334.11818085 256.33897614 -334.51109314 257.14949036 C-337.39850326 263.10126092 -340.30399917 269.04403662 -343.21484375 274.984375 C-344.49084569 277.59162027 -345.76661191 280.19898076 -347.04232788 282.80636597 C-347.85885237 284.4733992 -348.67654549 286.13986063 -349.49551392 287.80569458 C-354.31347565 297.60700797 -358.92083522 307.43752009 -363.09765625 317.53125 C-362.52442627 317.97621826 -361.95119629 318.42118652 -361.3605957 318.87963867 C-354.61429042 324.2054969 -351.39660897 330.0505875 -350.09765625 338.53125 C-349.97061157 342.86601452 -350.05385877 347.19529935 -350.09765625 351.53125 C-339.64299455 356.50333053 -329.14052275 361.33668551 -318.54507446 366.00088501 C-304.94256583 371.99218508 -291.40445012 378.1128097 -277.91015625 384.34375 C-266.78827407 389.4780846 -255.64360509 394.53889869 -244.41430664 399.43530273 C-235.85378464 403.1760055 -227.34782465 407.03096809 -218.84765625 410.90625 C-207.90292588 415.89524016 -196.94888191 420.86188656 -185.97265625 425.78125 C-184.77608398 426.3179834 -183.57951172 426.8547168 -182.34667969 427.40771484 C-180.18190431 428.3769566 -178.01539191 429.34233378 -175.84667969 430.30273438 C-174.18500331 431.04532367 -172.5297169 431.80279679 -170.88769531 432.58789062 C-168.45632206 433.72828062 -166.57605027 434.54714071 -163.86328125 434.45703125 C-161.55779144 433.24817929 -160.42565962 431.78317674 -158.84765625 429.71875 C-152.94601689 422.75879979 -146.42308229 420.81003737 -137.47265625 419.66015625 C-128.32578375 419.31079654 -119.87680157 422.38428688 -113.09765625 428.53125 C-108.34907001 433.87340952 -106.22362897 439.43609633 -104.640625 446.34375 C-104.30649681 448.49438837 -104.30649681 448.49438837 -103.09765625 449.53125 C-101.45085607 449.68375962 -99.79781878 449.76950775 -98.14501953 449.82836914 C-96.55537888 449.8883181 -96.55537888 449.8883181 -94.93362427 449.94947815 C-93.77345795 449.98806442 -92.61329163 450.0266507 -91.41796875 450.06640625 C-89.62321609 450.13087196 -89.62321609 450.13087196 -87.79220581 450.19664001 C-85.24159718 450.2871352 -82.69090278 450.37523852 -80.14013672 450.46118164 C-76.30151604 450.59108137 -72.46327551 450.72945419 -68.625 450.86914062 C-55.11041047 451.34734918 -41.62074387 451.67354282 -28.09765625 451.53125 C-27.63045166 450.15743164 -27.63045166 450.15743164 -27.15380859 448.75585938 C-23.78385642 439.04168909 -20.20005361 432.41629966 -10.91015625 427.59375 C-2.53143584 423.70127359 5.84488062 423.2059902 14.65234375 426.21875 C23.66854769 429.92526912 28.89946494 434.44425501 32.90234375 443.53125 C33.45342429 445.42238942 33.97982711 447.3208175 34.48730469 449.22412109 C34.88656158 450.7137587 34.88656158 450.7137587 35.29388428 452.23348999 C35.4946759 452.99175079 35.69546753 453.7500116 35.90234375 454.53125 C44.33636708 454.92927699 52.77066058 455.32078242 61.20533657 455.70470428 C65.12491262 455.88330146 69.04437377 456.06387128 72.96362305 456.24951172 C91.62171766 457.13171979 110.21670103 457.78826717 128.90234375 457.53125 C129.26972656 456.30365967 129.26972656 456.30365967 129.64453125 455.05126953 C133.30729545 443.03991504 138.11092188 434.39275612 148.90234375 427.53125 C159.68454137 422.13232666 170.75804361 420.86385592 182.46484375 424.03125 C188.34700189 425.99196938 192.84011412 428.96961533 197.66015625 432.82421875 C199.87611889 434.70198487 199.87611889 434.70198487 202.90234375 435.53125 C205.22053844 434.07198801 207.31030998 432.58193633 209.46484375 430.90625 C210.81831517 429.88319414 212.17251328 428.86109914 213.52734375 427.83984375 C214.24019531 427.29827637 214.95304688 426.75670898 215.6875 426.19873047 C219.40598228 423.39921173 223.18628767 420.68632625 226.96484375 417.96875 C228.11073975 417.14177612 228.11073975 417.14177612 229.27978516 416.2980957 C233.23619247 413.44378819 237.20138041 410.60241381 241.17749023 407.77563477 C248.13475035 402.82922616 255.01060825 397.77810728 261.87475586 392.70336914 C266.52237581 389.27161766 271.1899751 385.87346894 275.90234375 382.53125 C281.36534678 378.65560103 286.76581503 374.69993223 292.15234375 370.71875 C303.71948727 362.17149658 315.37545718 353.75037994 327.08984375 345.40625 C333.70387054 340.69302302 340.25660207 335.89890452 346.79541016 331.08203125 C349.1144191 329.37515468 351.43605646 327.67188775 353.7578125 325.96875 C355.4310523 324.73966872 357.10423014 323.51050306 358.77734375 322.28125 C359.54973389 321.7150293 360.32212402 321.14880859 361.11791992 320.56542969 C366.45020539 316.64269743 371.69583329 312.61932488 376.90234375 308.53125 C376.6818335 307.87930664 376.46132324 307.22736328 376.23413086 306.55566406 C375.4433986 304.21784695 374.65353458 301.882127 373.90234375 299.53125 C373.70898438 298.933125 373.515625 298.335 373.31640625 297.71875 C372.69163344 294.41806344 372.71795389 291.12776447 372.71484375 287.78125 C372.70259766 287.10320312 372.69035156 286.42515625 372.67773438 285.7265625 C372.66338798 280.69575883 373.5295794 276.37119388 374.90234375 271.53125 C366.34124463 266.69581438 357.78576291 261.8799227 348.96484375 257.53125 C337.69923831 251.97501776 326.61939937 246.07322285 315.55859375 240.12109375 C303.03685 233.38408088 290.48403339 226.72350644 277.83984375 220.21875 C277.17790009 219.87818573 276.51595642 219.53762146 275.83395386 219.18673706 C273.25273475 217.85891 270.67144375 216.53122279 268.09004211 215.20375061 C256.65969751 209.32269956 245.31208569 203.29213037 233.98876953 197.20800781 C232.79330378 196.5657375 231.59782845 195.92348503 230.40234375 195.28125 C229.80999939 194.96297241 229.21765503 194.64469482 228.60736084 194.31677246 C216.42827816 187.77669719 204.15979913 181.41623533 191.87792969 175.07128906 C180.44375152 169.15343577 169.08268699 163.10007585 157.73703003 157.01461792 C155.91849134 156.0399049 154.09915388 155.0667002 152.27954102 154.09399414 C146.84918209 151.19005072 141.42554235 148.27592489 136.02734375 145.3125 C134.31902971 144.38538111 132.61069778 143.4582952 130.90234375 142.53125 C130.13792969 142.10392578 129.37351562 141.67660156 128.5859375 141.23632812 C124.87751211 139.11782868 124.87751211 139.11782868 120.7421875 138.74609375 C120.13503906 139.00519531 119.52789063 139.26429688 118.90234375 139.53125 C118.57234375 140.52125 118.24234375 141.51125 117.90234375 142.53125 C116.078125 143.5625 116.078125 143.5625 113.90234375 144.53125 C112.62426902 145.35343416 111.35351093 146.18708944 110.08984375 147.03125 C102.5918277 151.71233184 94.93561172 152.61742078 86.3203125 151.06640625 C77.03559035 148.65608667 71.29514908 143.84082694 66.12890625 135.875 C62.20226356 128.3718611 62.13278099 120.83902982 62.90234375 112.53125 C63.79565373 109.91615708 64.79837439 107.72312079 66.22265625 105.36328125 C67.11389064 103.52062025 67.11389064 103.52062025 66.3203125 101.546875 C64.53493222 99.00897907 62.53439262 97.38358697 60.08984375 95.46875 C59.105 94.685 58.12015625 93.90125 57.10546875 93.09375 C56.58275391 92.67867187 56.06003906 92.26359375 55.52148438 91.8359375 C52.74823885 89.60128368 50.04803647 87.28142248 47.33984375 84.96875 C43.57211348 81.76312078 39.77984545 78.60434292 35.90234375 75.53125 C32.07345755 72.49412056 28.31701814 69.37935851 24.58984375 66.21875 C23.77785522 65.53159912 23.77785522 65.53159912 22.94946289 64.83056641 C20.05780802 62.3783067 17.18279323 59.90872339 14.32421875 57.41796875 C13.44890503 56.66157104 13.44890503 56.66157104 12.5559082 55.88989258 C11.43741314 54.92288525 10.32370079 53.9503095 9.21557617 52.97143555 C5.5317617 49.64772767 5.5317617 49.64772767 0.90234375 48.53125 C-1.2769486 49.66932198 -1.2769486 49.66932198 -3.47265625 51.34375 C-11.43570023 56.35578356 -20.22851786 57.46516674 -29.41015625 55.59375 C-36.03387255 53.61017721 -41.62265605 49.924684 -45.71875 44.30859375 C-46.17378906 43.72207031 -46.62882812 43.13554688 -47.09765625 42.53125 C-47.75765625 42.53125 -48.41765625 42.53125 -49.09765625 42.53125 C-49.42765625 40.88125 -49.75765625 39.23125 -50.09765625 37.53125 C-53.69763054 37.53125 -55.75980821 37.89911334 -59.11230469 38.95825195 Z " fill="#FFFFFF" transform="translate(418.09765625,17.46875)"/>
</svg>
