<!DOCTYPE svg PUBLIC "-//W3C//DTD SVG 1.1//EN" "http://www.w3.org/Graphics/SVG/1.1/DTD/svg11.dtd">
<!-- Uploaded to: SVG Repo, www.svgrepo.com, Transformed by: SVG Repo Mixer Tools -->
<svg width="800px" height="800px" viewBox="0 0 24.00 24.00" fill="none" xmlns="http://www.w3.org/2000/svg">
<g id="SVGRepo_bgCarrier" stroke-width="0"/>
<g id="SVGRepo_tracerCarrier" stroke-linecap="round" stroke-linejoin="round"/>
<g id="SVGRepo_iconCarrier">
<path d="M5.29168 6C3.86656 7.59227 3 9.69494 3 12C3 12.6874 3.07706 13.3568 3.22302 14M5.29168 6C6.93964 4.15875 9.3345 3 12 3C16.2832 3 19.8675 5.99202 20.777 10M5.29168 6H12M20.777 10C20.9229 10.6432 21 11.3126 21 12C21 16.9706 16.9706 21 12 21C9.3345 21 6.93964 19.8412 5.29168 18M20.777 10H15M3.22302 14H13M3.22302 14C3.5665 15.5137 4.29154 16.8826 5.29168 18M5.29168 18H11M12 10H10" stroke="#000000" stroke-linecap="round" stroke-linejoin="round" stroke-width="0.9600000000000002"/>
<path d="M7.00073 10.0007L7.00003 10" stroke="#000000" stroke-linecap="round" stroke-linejoin="round" stroke-width="0.9600000000000002"/>
<path d="M16.0007 14.0007L16 14" stroke="#000000" stroke-linecap="round" stroke-linejoin="round" stroke-width="0.9600000000000002"/>
</g>
</svg>